<mxfile host="65bd71144e">
    <diagram id="HIP3nbAZw_EuaXWnEj3U" name="Page-1">
        <mxGraphModel dx="1440" dy="701" grid="1" gridSize="10" guides="1" tooltips="1" connect="1" arrows="1" fold="1" page="1" pageScale="1" pageWidth="850" pageHeight="1100" math="0" shadow="0">
            <root>
                <mxCell id="0"/>
                <mxCell id="1" parent="0"/>
                <mxCell id="7" value="" style="edgeStyle=orthogonalEdgeStyle;shape=connector;rounded=0;html=1;strokeColor=default;align=center;verticalAlign=middle;fontFamily=Helvetica;fontSize=11;fontColor=default;labelBackgroundColor=default;endArrow=classic;" parent="1" source="2" target="6" edge="1">
                    <mxGeometry relative="1" as="geometry"/>
                </mxCell>
                <mxCell id="2" value="Start" style="strokeWidth=2;html=1;shape=mxgraph.flowchart.terminator;whiteSpace=wrap;" parent="1" vertex="1">
                    <mxGeometry x="50" y="10" width="100" height="60" as="geometry"/>
                </mxCell>
                <mxCell id="400" value="" style="edgeStyle=orthogonalEdgeStyle;shape=connector;rounded=0;html=1;strokeColor=default;align=center;verticalAlign=middle;fontFamily=Helvetica;fontSize=11;fontColor=default;labelBackgroundColor=default;endArrow=classic;" parent="1" source="6" target="399" edge="1">
                    <mxGeometry relative="1" as="geometry"/>
                </mxCell>
                <mxCell id="6" value="Get numberOfDice" style="shape=parallelogram;html=1;strokeWidth=2;perimeter=parallelogramPerimeter;whiteSpace=wrap;rounded=1;arcSize=12;size=0.23;fontFamily=Helvetica;fontSize=11;fontColor=default;labelBackgroundColor=default;" parent="1" vertex="1">
                    <mxGeometry x="32.5" y="90" width="135" height="60" as="geometry"/>
                </mxCell>
                <mxCell id="414" value="" style="edgeStyle=orthogonalEdgeStyle;shape=connector;rounded=0;html=1;strokeColor=default;align=center;verticalAlign=middle;fontFamily=Helvetica;fontSize=11;fontColor=default;labelBackgroundColor=default;endArrow=classic;" parent="1" source="28" target="413" edge="1">
                    <mxGeometry relative="1" as="geometry"/>
                </mxCell>
                <mxCell id="28" value="dieOne =&amp;nbsp;&amp;nbsp;Math.floor(Math.random() * 6) + 1" style="rounded=1;whiteSpace=wrap;html=1;fontSize=11;strokeWidth=2;labelBackgroundColor=default;" parent="1" vertex="1">
                    <mxGeometry x="249" y="151" width="135" height="60" as="geometry"/>
                </mxCell>
                <mxCell id="313" style="edgeStyle=orthogonalEdgeStyle;shape=connector;rounded=0;html=1;entryX=0.5;entryY=0;entryDx=0;entryDy=0;strokeColor=default;align=center;verticalAlign=middle;fontFamily=Helvetica;fontSize=11;fontColor=default;labelBackgroundColor=default;endArrow=classic;" parent="1" edge="1">
                    <mxGeometry relative="1" as="geometry">
                        <Array as="points">
                            <mxPoint x="1102" y="491"/>
                            <mxPoint x="1102" y="1000"/>
                            <mxPoint x="902" y="1000"/>
                        </Array>
                        <mxPoint x="1053.1999999999998" y="491" as="sourcePoint"/>
                    </mxGeometry>
                </mxCell>
                <mxCell id="317" style="edgeStyle=orthogonalEdgeStyle;shape=connector;rounded=0;html=1;entryX=0.5;entryY=0;entryDx=0;entryDy=0;strokeColor=default;align=center;verticalAlign=middle;fontFamily=Helvetica;fontSize=11;fontColor=default;labelBackgroundColor=default;endArrow=classic;" parent="1" edge="1">
                    <mxGeometry relative="1" as="geometry">
                        <Array as="points">
                            <mxPoint x="1102" y="850"/>
                            <mxPoint x="1102" y="1000"/>
                            <mxPoint x="902" y="1000"/>
                        </Array>
                        <mxPoint x="1048.1999999999998" y="850" as="sourcePoint"/>
                    </mxGeometry>
                </mxCell>
                <mxCell id="425" value="" style="edgeStyle=orthogonalEdgeStyle;shape=connector;rounded=0;html=1;strokeColor=default;align=center;verticalAlign=middle;fontFamily=Helvetica;fontSize=11;fontColor=default;labelBackgroundColor=default;endArrow=classic;" parent="1" source="385" target="28" edge="1">
                    <mxGeometry relative="1" as="geometry"/>
                </mxCell>
                <mxCell id="385" value="if (numberOfDice &amp;gt;= 0)" style="strokeWidth=2;html=1;shape=mxgraph.flowchart.decision;whiteSpace=wrap;fontFamily=Helvetica;fontSize=11;fontColor=default;labelBackgroundColor=default;" parent="1" vertex="1">
                    <mxGeometry x="252.5" y="20" width="130" height="110" as="geometry"/>
                </mxCell>
                <mxCell id="402" value="" style="edgeStyle=orthogonalEdgeStyle;shape=connector;rounded=0;html=1;strokeColor=default;align=center;verticalAlign=middle;fontFamily=Helvetica;fontSize=11;fontColor=default;labelBackgroundColor=default;endArrow=classic;" parent="1" source="399" target="401" edge="1">
                    <mxGeometry relative="1" as="geometry"/>
                </mxCell>
                <mxCell id="399" value="&lt;span style=&quot;color: rgb(0, 0, 0);&quot;&gt;document.getElementById(&#39;die-one&#39;).innerHTML = &#39;&amp;lt;img src=&quot;./assets/pink.png&quot;&amp;gt;&#39;&lt;/span&gt;" style="shape=parallelogram;html=1;strokeWidth=2;perimeter=parallelogramPerimeter;whiteSpace=wrap;rounded=1;arcSize=12;size=0.23;fontFamily=Helvetica;fontSize=11;fontColor=default;labelBackgroundColor=default;" parent="1" vertex="1">
                    <mxGeometry x="15" y="180" width="170" height="60" as="geometry"/>
                </mxCell>
                <mxCell id="404" value="" style="edgeStyle=orthogonalEdgeStyle;shape=connector;rounded=0;html=1;strokeColor=default;align=center;verticalAlign=middle;fontFamily=Helvetica;fontSize=11;fontColor=default;labelBackgroundColor=default;endArrow=classic;" parent="1" source="401" target="403" edge="1">
                    <mxGeometry relative="1" as="geometry"/>
                </mxCell>
                <mxCell id="401" value="&lt;span style=&quot;color: rgb(0, 0, 0);&quot;&gt;document.getElementById(&#39;die-two&#39;).innerHTML = &#39;&amp;lt;img src=&quot;./assets/pink.png&quot;&lt;/span&gt;&lt;span style=&quot;color: rgb(63, 63, 63); scrollbar-color: rgb(226, 226, 226) rgb(251, 251, 251); text-wrap-mode: nowrap; font-family: monospace; font-size: 0px; text-align: start; background-color: rgb(251, 251, 251);&quot;&gt;%3CmxGraphModel%3E%3Croot%3E%3CmxCell%20id%3D%220%22%2F%3E%3CmxCell%20id%3D%221%22%20parent%3D%220%22%2F%3E%3CUserObject%20label%3D%22document.getElementById(&#39;die-one&#39;).innerHTML%20%3D%20&#39;%26amp%3Blt%3Bimg%20src%3D%26quot%3B.%2Fassets%2Fpink.png%26quot%3B%26amp%3Bgt%3B&#39;%22%20id%3D%222%22%3E%3CmxCell%20style%3D%22whiteSpace%3Dwrap%3Bhtml%3D1%3BfontSize%3D11%3BstrokeWidth%3D2%3Brounded%3D1%3BarcSize%3D12%3BlabelBackgroundColor%3Ddefault%3B%22%20vertex%3D%221%22%20parent%3D%221%22%3E%3CmxGeometry%20x%3D%2210%22%20y%3D%22180%22%20width%3D%22180%22%20height%3D%2260%22%20as%3D%22geometry%22%2F%3E%3C%2FmxCell%3E%3C%2FUserObject%3E%3C%2Froot%3E%3C%2FmxGraphModel%3E&lt;/span&gt;&lt;span style=&quot;color: rgb(0, 0, 0);&quot;&gt;&amp;gt;&#39;&lt;/span&gt;" style="shape=parallelogram;html=1;strokeWidth=2;perimeter=parallelogramPerimeter;whiteSpace=wrap;rounded=1;arcSize=12;size=0.23;fontFamily=Helvetica;fontSize=11;fontColor=default;labelBackgroundColor=default;" parent="1" vertex="1">
                    <mxGeometry x="15" y="270" width="170" height="60" as="geometry"/>
                </mxCell>
                <mxCell id="406" value="" style="edgeStyle=orthogonalEdgeStyle;shape=connector;rounded=0;html=1;strokeColor=default;align=center;verticalAlign=middle;fontFamily=Helvetica;fontSize=11;fontColor=default;labelBackgroundColor=default;endArrow=classic;" parent="1" source="403" target="405" edge="1">
                    <mxGeometry relative="1" as="geometry"/>
                </mxCell>
                <mxCell id="403" value="&lt;span style=&quot;color: rgb(0, 0, 0);&quot;&gt;document.getElementById(&#39;die-three&#39;).innerHTML = &#39;&amp;lt;img src=&quot;./assets/pink.png&quot;&lt;/span&gt;&lt;span style=&quot;color: rgb(63, 63, 63); scrollbar-color: rgb(226, 226, 226) rgb(251, 251, 251); text-wrap-mode: nowrap; font-family: monospace; font-size: 0px; text-align: start; background-color: rgb(251, 251, 251);&quot;&gt;%3CmxGraphModel%3E%3Croot%3E%3CmxCell%20id%3D%220%22%2F%3E%3CmxCell%20id%3D%221%22%20parent%3D%220%22%2F%3E%3CUserObject%20label%3D%22document.getElementById(&#39;die-one&#39;).innerHTML%20%3D%20&#39;%26amp%3Blt%3Bimg%20src%3D%26quot%3B.%2Fassets%2Fpink.png%26quot%3B%26amp%3Bgt%3B&#39;%22%20id%3D%222%22%3E%3CmxCell%20style%3D%22whiteSpace%3Dwrap%3Bhtml%3D1%3BfontSize%3D11%3BstrokeWidth%3D2%3Brounded%3D1%3BarcSize%3D12%3BlabelBackgroundColor%3Ddefault%3B%22%20vertex%3D%221%22%20parent%3D%221%22%3E%3CmxGeometry%20x%3D%2210%22%20y%3D%22180%22%20width%3D%22180%22%20height%3D%2260%22%20as%3D%22geometry%22%2F%3E%3C%2FmxCell%3E%3C%2FUserObject%3E%3C%2Froot%3E%3C%2FmxGraphModel%3E&lt;/span&gt;&lt;span style=&quot;color: rgb(0, 0, 0);&quot;&gt;&amp;gt;&#39;&lt;/span&gt;" style="shape=parallelogram;html=1;strokeWidth=2;perimeter=parallelogramPerimeter;whiteSpace=wrap;rounded=1;arcSize=12;size=0.23;fontFamily=Helvetica;fontSize=11;fontColor=default;labelBackgroundColor=default;" parent="1" vertex="1">
                    <mxGeometry x="15" y="360" width="170" height="60" as="geometry"/>
                </mxCell>
                <mxCell id="408" value="" style="edgeStyle=orthogonalEdgeStyle;shape=connector;rounded=0;html=1;strokeColor=default;align=center;verticalAlign=middle;fontFamily=Helvetica;fontSize=11;fontColor=default;labelBackgroundColor=default;endArrow=classic;" parent="1" source="405" target="407" edge="1">
                    <mxGeometry relative="1" as="geometry"/>
                </mxCell>
                <mxCell id="405" value="&lt;span style=&quot;color: rgb(0, 0, 0);&quot;&gt;document.getElementById(&#39;die-four&#39;).innerHTML = &#39;&amp;lt;img src=&quot;./assets/pink.png&quot;&lt;/span&gt;&lt;span style=&quot;color: rgb(63, 63, 63); scrollbar-color: rgb(226, 226, 226) rgb(251, 251, 251); text-wrap-mode: nowrap; font-family: monospace; font-size: 0px; text-align: start; background-color: rgb(251, 251, 251);&quot;&gt;%3CmxGraphModel%3E%3Croot%3E%3CmxCell%20id%3D%220%22%2F%3E%3CmxCell%20id%3D%221%22%20parent%3D%220%22%2F%3E%3CUserObject%20label%3D%22document.getElementById(&#39;die-one&#39;).innerHTML%20%3D%20&#39;%26amp%3Blt%3Bimg%20src%3D%26quot%3B.%2Fassets%2Fpink.png%26quot%3B%26amp%3Bgt%3B&#39;%22%20id%3D%222%22%3E%3CmxCell%20style%3D%22whiteSpace%3Dwrap%3Bhtml%3D1%3BfontSize%3D11%3BstrokeWidth%3D2%3Brounded%3D1%3BarcSize%3D12%3BlabelBackgroundColor%3Ddefault%3B%22%20vertex%3D%221%22%20parent%3D%221%22%3E%3CmxGeometry%20x%3D%2210%22%20y%3D%22180%22%20width%3D%22180%22%20height%3D%2260%22%20as%3D%22geometry%22%2F%3E%3C%2FmxCell%3E%3C%2FUserObject%3E%3C%2Froot%3E%3C%2FmxGraphModel%3E&lt;/span&gt;&lt;span style=&quot;color: rgb(0, 0, 0);&quot;&gt;&amp;gt;&#39;&lt;/span&gt;" style="shape=parallelogram;html=1;strokeWidth=2;perimeter=parallelogramPerimeter;whiteSpace=wrap;rounded=1;arcSize=12;size=0.23;fontFamily=Helvetica;fontSize=11;fontColor=default;labelBackgroundColor=default;" parent="1" vertex="1">
                    <mxGeometry x="15" y="460" width="170" height="60" as="geometry"/>
                </mxCell>
                <mxCell id="410" value="" style="edgeStyle=orthogonalEdgeStyle;shape=connector;rounded=0;html=1;strokeColor=default;align=center;verticalAlign=middle;fontFamily=Helvetica;fontSize=11;fontColor=default;labelBackgroundColor=default;endArrow=classic;" parent="1" source="407" target="409" edge="1">
                    <mxGeometry relative="1" as="geometry"/>
                </mxCell>
                <mxCell id="407" value="&lt;span style=&quot;color: rgb(0, 0, 0);&quot;&gt;document.getElementById(&#39;die-five&#39;).innerHTML = &#39;&amp;lt;img src=&quot;./assets/pink.png&quot;&lt;/span&gt;&lt;span style=&quot;color: rgb(63, 63, 63); scrollbar-color: rgb(226, 226, 226) rgb(251, 251, 251); text-wrap-mode: nowrap; font-family: monospace; font-size: 0px; text-align: start; background-color: rgb(251, 251, 251);&quot;&gt;%3CmxGraphModel%3E%3Croot%3E%3CmxCell%20id%3D%220%22%2F%3E%3CmxCell%20id%3D%221%22%20parent%3D%220%22%2F%3E%3CUserObject%20label%3D%22document.getElementById(&#39;die-one&#39;).innerHTML%20%3D%20&#39;%26amp%3Blt%3Bimg%20src%3D%26quot%3B.%2Fassets%2Fpink.png%26quot%3B%26amp%3Bgt%3B&#39;%22%20id%3D%222%22%3E%3CmxCell%20style%3D%22whiteSpace%3Dwrap%3Bhtml%3D1%3BfontSize%3D11%3BstrokeWidth%3D2%3Brounded%3D1%3BarcSize%3D12%3BlabelBackgroundColor%3Ddefault%3B%22%20vertex%3D%221%22%20parent%3D%221%22%3E%3CmxGeometry%20x%3D%2210%22%20y%3D%22180%22%20width%3D%22180%22%20height%3D%2260%22%20as%3D%22geometry%22%2F%3E%3C%2FmxCell%3E%3C%2FUserObject%3E%3C%2Froot%3E%3C%2FmxGraphModel%3E&lt;/span&gt;&lt;span style=&quot;color: rgb(0, 0, 0);&quot;&gt;&amp;gt;&#39;&lt;/span&gt;" style="shape=parallelogram;html=1;strokeWidth=2;perimeter=parallelogramPerimeter;whiteSpace=wrap;rounded=1;arcSize=12;size=0.23;fontFamily=Helvetica;fontSize=11;fontColor=default;labelBackgroundColor=default;" parent="1" vertex="1">
                    <mxGeometry x="15" y="550" width="170" height="60" as="geometry"/>
                </mxCell>
                <mxCell id="411" value="" style="edgeStyle=orthogonalEdgeStyle;shape=connector;rounded=0;html=1;strokeColor=default;align=center;verticalAlign=middle;fontFamily=Helvetica;fontSize=11;fontColor=default;labelBackgroundColor=default;endArrow=classic;" parent="1" source="409" target="385" edge="1">
                    <mxGeometry relative="1" as="geometry">
                        <Array as="points">
                            <mxPoint x="220" y="670"/>
                            <mxPoint x="220" y="75"/>
                        </Array>
                    </mxGeometry>
                </mxCell>
                <mxCell id="409" value="&lt;span style=&quot;color: rgb(0, 0, 0);&quot;&gt;document.getElementById(&#39;die-six&#39;).innerHTML = &#39;&amp;lt;img src=&quot;./assets/pink.png&quot;&lt;/span&gt;&lt;span style=&quot;color: rgb(63, 63, 63); scrollbar-color: rgb(226, 226, 226) rgb(251, 251, 251); text-wrap-mode: nowrap; font-family: monospace; font-size: 0px; text-align: start; background-color: rgb(251, 251, 251);&quot;&gt;%3CmxGraphModel%3E%3Croot%3E%3CmxCell%20id%3D%220%22%2F%3E%3CmxCell%20id%3D%221%22%20parent%3D%220%22%2F%3E%3CUserObject%20label%3D%22document.getElementById(&#39;die-one&#39;).innerHTML%20%3D%20&#39;%26amp%3Blt%3Bimg%20src%3D%26quot%3B.%2Fassets%2Fpink.png%26quot%3B%26amp%3Bgt%3B&#39;%22%20id%3D%222%22%3E%3CmxCell%20style%3D%22whiteSpace%3Dwrap%3Bhtml%3D1%3BfontSize%3D11%3BstrokeWidth%3D2%3Brounded%3D1%3BarcSize%3D12%3BlabelBackgroundColor%3Ddefault%3B%22%20vertex%3D%221%22%20parent%3D%221%22%3E%3CmxGeometry%20x%3D%2210%22%20y%3D%22180%22%20width%3D%22180%22%20height%3D%2260%22%20as%3D%22geometry%22%2F%3E%3C%2FmxCell%3E%3C%2FUserObject%3E%3C%2Froot%3E%3C%2FmxGraphModel%3E&lt;/span&gt;&lt;span style=&quot;color: rgb(0, 0, 0);&quot;&gt;&amp;gt;&#39;&lt;/span&gt;" style="shape=parallelogram;html=1;strokeWidth=2;perimeter=parallelogramPerimeter;whiteSpace=wrap;rounded=1;arcSize=12;size=0.23;fontFamily=Helvetica;fontSize=11;fontColor=default;labelBackgroundColor=default;" parent="1" vertex="1">
                    <mxGeometry x="15" y="640" width="170" height="60" as="geometry"/>
                </mxCell>
                <mxCell id="416" value="" style="edgeStyle=orthogonalEdgeStyle;shape=connector;rounded=0;html=1;strokeColor=default;align=center;verticalAlign=middle;fontFamily=Helvetica;fontSize=11;fontColor=default;labelBackgroundColor=default;endArrow=classic;" parent="1" source="413" target="415" edge="1">
                    <mxGeometry relative="1" as="geometry"/>
                </mxCell>
                <mxCell id="431" value="" style="edgeStyle=orthogonalEdgeStyle;shape=connector;rounded=0;html=1;strokeColor=default;align=center;verticalAlign=middle;fontFamily=Helvetica;fontSize=11;fontColor=default;labelBackgroundColor=default;endArrow=classic;" parent="1" source="413" target="430" edge="1">
                    <mxGeometry relative="1" as="geometry"/>
                </mxCell>
                <mxCell id="413" value="if (dieOne === 1)" style="strokeWidth=2;html=1;shape=mxgraph.flowchart.decision;whiteSpace=wrap;fontFamily=Helvetica;fontSize=11;fontColor=default;labelBackgroundColor=default;" parent="1" vertex="1">
                    <mxGeometry x="251" y="235" width="130" height="110" as="geometry"/>
                </mxCell>
                <mxCell id="418" value="" style="edgeStyle=orthogonalEdgeStyle;shape=connector;rounded=0;html=1;strokeColor=default;align=center;verticalAlign=middle;fontFamily=Helvetica;fontSize=11;fontColor=default;labelBackgroundColor=default;endArrow=classic;" parent="1" source="415" target="417" edge="1">
                    <mxGeometry relative="1" as="geometry"/>
                </mxCell>
                <mxCell id="433" value="" style="edgeStyle=orthogonalEdgeStyle;shape=connector;rounded=0;html=1;strokeColor=default;align=center;verticalAlign=middle;fontFamily=Helvetica;fontSize=11;fontColor=default;labelBackgroundColor=default;endArrow=classic;" parent="1" source="415" target="432" edge="1">
                    <mxGeometry relative="1" as="geometry"/>
                </mxCell>
                <mxCell id="415" value="else if (dieOne === 2)" style="strokeWidth=2;html=1;shape=mxgraph.flowchart.decision;whiteSpace=wrap;fontFamily=Helvetica;fontSize=11;fontColor=default;labelBackgroundColor=default;" parent="1" vertex="1">
                    <mxGeometry x="250" y="367" width="130" height="110" as="geometry"/>
                </mxCell>
                <mxCell id="420" value="" style="edgeStyle=orthogonalEdgeStyle;shape=connector;rounded=0;html=1;strokeColor=default;align=center;verticalAlign=middle;fontFamily=Helvetica;fontSize=11;fontColor=default;labelBackgroundColor=default;endArrow=classic;" parent="1" source="417" target="419" edge="1">
                    <mxGeometry relative="1" as="geometry"/>
                </mxCell>
                <mxCell id="435" value="" style="edgeStyle=orthogonalEdgeStyle;shape=connector;rounded=0;html=1;strokeColor=default;align=center;verticalAlign=middle;fontFamily=Helvetica;fontSize=11;fontColor=default;labelBackgroundColor=default;endArrow=classic;" parent="1" source="417" target="434" edge="1">
                    <mxGeometry relative="1" as="geometry"/>
                </mxCell>
                <mxCell id="417" value="else if (dieOne === 3)" style="strokeWidth=2;html=1;shape=mxgraph.flowchart.decision;whiteSpace=wrap;fontFamily=Helvetica;fontSize=11;fontColor=default;labelBackgroundColor=default;" parent="1" vertex="1">
                    <mxGeometry x="250" y="505" width="130" height="110" as="geometry"/>
                </mxCell>
                <mxCell id="422" value="" style="edgeStyle=orthogonalEdgeStyle;shape=connector;rounded=0;html=1;strokeColor=default;align=center;verticalAlign=middle;fontFamily=Helvetica;fontSize=11;fontColor=default;labelBackgroundColor=default;endArrow=classic;" parent="1" source="419" target="421" edge="1">
                    <mxGeometry relative="1" as="geometry"/>
                </mxCell>
                <mxCell id="438" value="" style="edgeStyle=orthogonalEdgeStyle;shape=connector;rounded=0;html=1;strokeColor=default;align=center;verticalAlign=middle;fontFamily=Helvetica;fontSize=11;fontColor=default;labelBackgroundColor=default;endArrow=classic;" parent="1" source="419" target="436" edge="1">
                    <mxGeometry relative="1" as="geometry"/>
                </mxCell>
                <mxCell id="419" value="else if (dieOne === 4)" style="strokeWidth=2;html=1;shape=mxgraph.flowchart.decision;whiteSpace=wrap;fontFamily=Helvetica;fontSize=11;fontColor=default;labelBackgroundColor=default;" parent="1" vertex="1">
                    <mxGeometry x="250" y="643" width="130" height="110" as="geometry"/>
                </mxCell>
                <mxCell id="424" value="" style="edgeStyle=orthogonalEdgeStyle;shape=connector;rounded=0;html=1;strokeColor=default;align=center;verticalAlign=middle;fontFamily=Helvetica;fontSize=11;fontColor=default;labelBackgroundColor=default;endArrow=classic;" parent="1" source="421" target="423" edge="1">
                    <mxGeometry relative="1" as="geometry"/>
                </mxCell>
                <mxCell id="440" value="" style="edgeStyle=orthogonalEdgeStyle;shape=connector;rounded=0;html=1;strokeColor=default;align=center;verticalAlign=middle;fontFamily=Helvetica;fontSize=11;fontColor=default;labelBackgroundColor=default;endArrow=classic;" parent="1" source="421" target="439" edge="1">
                    <mxGeometry relative="1" as="geometry"/>
                </mxCell>
                <mxCell id="421" value="else if (dieOne === 5)" style="strokeWidth=2;html=1;shape=mxgraph.flowchart.decision;whiteSpace=wrap;fontFamily=Helvetica;fontSize=11;fontColor=default;labelBackgroundColor=default;" parent="1" vertex="1">
                    <mxGeometry x="250" y="781" width="130" height="110" as="geometry"/>
                </mxCell>
                <mxCell id="442" value="" style="edgeStyle=orthogonalEdgeStyle;shape=connector;rounded=0;html=1;strokeColor=default;align=center;verticalAlign=middle;fontFamily=Helvetica;fontSize=11;fontColor=default;labelBackgroundColor=default;endArrow=classic;" parent="1" source="423" target="441" edge="1">
                    <mxGeometry relative="1" as="geometry"/>
                </mxCell>
                <mxCell id="445" style="edgeStyle=orthogonalEdgeStyle;shape=connector;rounded=0;html=1;strokeColor=default;align=center;verticalAlign=middle;fontFamily=Helvetica;fontSize=11;fontColor=default;labelBackgroundColor=default;endArrow=classic;exitX=0.5;exitY=1;exitDx=0;exitDy=0;exitPerimeter=0;" parent="1" source="423" target="443" edge="1">
                    <mxGeometry relative="1" as="geometry">
                        <mxPoint x="350" y="1100" as="targetPoint"/>
                        <mxPoint x="270" y="1027" as="sourcePoint"/>
                        <Array as="points">
                            <mxPoint x="315" y="1090"/>
                        </Array>
                    </mxGeometry>
                </mxCell>
                <mxCell id="423" value="else if (dieOne === 6)" style="strokeWidth=2;html=1;shape=mxgraph.flowchart.decision;whiteSpace=wrap;fontFamily=Helvetica;fontSize=11;fontColor=default;labelBackgroundColor=default;" parent="1" vertex="1">
                    <mxGeometry x="250" y="917" width="130" height="110" as="geometry"/>
                </mxCell>
                <mxCell id="492" style="edgeStyle=orthogonalEdgeStyle;shape=connector;rounded=0;html=1;strokeColor=default;align=center;verticalAlign=middle;fontFamily=Helvetica;fontSize=11;fontColor=default;labelBackgroundColor=default;endArrow=classic;entryX=0;entryY=0.5;entryDx=0;entryDy=0;entryPerimeter=0;" parent="1" source="430" edge="1" target="450">
                    <mxGeometry relative="1" as="geometry">
                        <mxPoint x="620" y="80" as="targetPoint"/>
                    </mxGeometry>
                </mxCell>
                <mxCell id="430" value="&lt;span style=&quot;color: rgb(0, 0, 0);&quot;&gt;document.getElementById(&#39;die-one&#39;).innerHTML = &#39;&amp;lt;img src=&quot;./assets/die1.png&quot;&amp;gt;&#39;&lt;/span&gt;" style="shape=parallelogram;html=1;strokeWidth=2;perimeter=parallelogramPerimeter;whiteSpace=wrap;rounded=1;arcSize=12;size=0.23;fontFamily=Helvetica;fontSize=11;fontColor=default;labelBackgroundColor=default;" parent="1" vertex="1">
                    <mxGeometry x="410" y="260" width="170" height="60" as="geometry"/>
                </mxCell>
                <mxCell id="493" style="edgeStyle=orthogonalEdgeStyle;shape=connector;rounded=0;html=1;strokeColor=default;align=center;verticalAlign=middle;fontFamily=Helvetica;fontSize=11;fontColor=default;labelBackgroundColor=default;endArrow=classic;" parent="1" source="432" edge="1">
                    <mxGeometry relative="1" as="geometry">
                        <mxPoint x="620" y="110" as="targetPoint"/>
                    </mxGeometry>
                </mxCell>
                <mxCell id="432" value="&lt;span style=&quot;color: rgb(0, 0, 0);&quot;&gt;document.getElementById(&#39;die-one&#39;).innerHTML = &#39;&amp;lt;img src=&quot;./assets/die2.png&quot;&amp;gt;&#39;&lt;/span&gt;" style="shape=parallelogram;html=1;strokeWidth=2;perimeter=parallelogramPerimeter;whiteSpace=wrap;rounded=1;arcSize=12;size=0.23;fontFamily=Helvetica;fontSize=11;fontColor=default;labelBackgroundColor=default;" parent="1" vertex="1">
                    <mxGeometry x="400" y="392" width="170" height="60" as="geometry"/>
                </mxCell>
                <mxCell id="494" style="edgeStyle=orthogonalEdgeStyle;shape=connector;rounded=0;html=1;strokeColor=default;align=center;verticalAlign=middle;fontFamily=Helvetica;fontSize=11;fontColor=default;labelBackgroundColor=default;endArrow=classic;" parent="1" source="434" edge="1">
                    <mxGeometry relative="1" as="geometry">
                        <mxPoint x="620" y="140" as="targetPoint"/>
                    </mxGeometry>
                </mxCell>
                <mxCell id="434" value="&lt;span style=&quot;color: rgb(0, 0, 0);&quot;&gt;document.getElementById(&#39;die-one&#39;).innerHTML = &#39;&amp;lt;img src=&quot;./assets/die3.png&quot;&amp;gt;&#39;&lt;/span&gt;" style="shape=parallelogram;html=1;strokeWidth=2;perimeter=parallelogramPerimeter;whiteSpace=wrap;rounded=1;arcSize=12;size=0.23;fontFamily=Helvetica;fontSize=11;fontColor=default;labelBackgroundColor=default;" parent="1" vertex="1">
                    <mxGeometry x="400" y="530" width="170" height="60" as="geometry"/>
                </mxCell>
                <mxCell id="495" style="edgeStyle=orthogonalEdgeStyle;shape=connector;rounded=0;html=1;strokeColor=default;align=center;verticalAlign=middle;fontFamily=Helvetica;fontSize=11;fontColor=default;labelBackgroundColor=default;endArrow=classic;" parent="1" source="436" edge="1">
                    <mxGeometry relative="1" as="geometry">
                        <mxPoint x="620" y="170" as="targetPoint"/>
                    </mxGeometry>
                </mxCell>
                <mxCell id="436" value="&lt;span style=&quot;color: rgb(0, 0, 0);&quot;&gt;document.getElementById(&#39;die-one&#39;).innerHTML = &#39;&amp;lt;img src=&quot;./assets/die4.png&quot;&amp;gt;&#39;&lt;/span&gt;" style="shape=parallelogram;html=1;strokeWidth=2;perimeter=parallelogramPerimeter;whiteSpace=wrap;rounded=1;arcSize=12;size=0.23;fontFamily=Helvetica;fontSize=11;fontColor=default;labelBackgroundColor=default;" parent="1" vertex="1">
                    <mxGeometry x="400" y="668" width="170" height="60" as="geometry"/>
                </mxCell>
                <mxCell id="496" style="edgeStyle=orthogonalEdgeStyle;shape=connector;rounded=0;html=1;strokeColor=default;align=center;verticalAlign=middle;fontFamily=Helvetica;fontSize=11;fontColor=default;labelBackgroundColor=default;endArrow=classic;" parent="1" source="439" edge="1">
                    <mxGeometry relative="1" as="geometry">
                        <mxPoint x="620" y="190" as="targetPoint"/>
                    </mxGeometry>
                </mxCell>
                <mxCell id="439" value="&lt;span style=&quot;color: rgb(0, 0, 0);&quot;&gt;document.getElementById(&#39;die-one&#39;).innerHTML = &#39;&amp;lt;img src=&quot;./assets/die5.png&quot;&amp;gt;&#39;&lt;/span&gt;" style="shape=parallelogram;html=1;strokeWidth=2;perimeter=parallelogramPerimeter;whiteSpace=wrap;rounded=1;arcSize=12;size=0.23;fontFamily=Helvetica;fontSize=11;fontColor=default;labelBackgroundColor=default;" parent="1" vertex="1">
                    <mxGeometry x="400" y="806" width="170" height="60" as="geometry"/>
                </mxCell>
                <mxCell id="497" style="edgeStyle=orthogonalEdgeStyle;shape=connector;rounded=0;html=1;strokeColor=default;align=center;verticalAlign=middle;fontFamily=Helvetica;fontSize=11;fontColor=default;labelBackgroundColor=default;endArrow=classic;" parent="1" source="441" edge="1">
                    <mxGeometry relative="1" as="geometry">
                        <mxPoint x="620" y="204.80656215122767" as="targetPoint"/>
                    </mxGeometry>
                </mxCell>
                <mxCell id="441" value="&lt;span style=&quot;color: rgb(0, 0, 0);&quot;&gt;document.getElementById(&#39;die-one&#39;).innerHTML = &#39;&amp;lt;img src=&quot;./assets/die6.png&quot;&amp;gt;&#39;&lt;/span&gt;" style="shape=parallelogram;html=1;strokeWidth=2;perimeter=parallelogramPerimeter;whiteSpace=wrap;rounded=1;arcSize=12;size=0.23;fontFamily=Helvetica;fontSize=11;fontColor=default;labelBackgroundColor=default;" parent="1" vertex="1">
                    <mxGeometry x="384" y="942" width="170" height="60" as="geometry"/>
                </mxCell>
                <mxCell id="443" value="Error comment (You should NEVER get here)" style="shape=parallelogram;html=1;strokeWidth=2;perimeter=parallelogramPerimeter;whiteSpace=wrap;rounded=1;arcSize=12;size=0.23;fontFamily=Helvetica;fontSize=11;fontColor=default;labelBackgroundColor=default;" parent="1" vertex="1">
                    <mxGeometry x="370" y="1060" width="170" height="60" as="geometry"/>
                </mxCell>
                <mxCell id="446" value="" style="edgeStyle=orthogonalEdgeStyle;shape=connector;rounded=0;html=1;strokeColor=default;align=center;verticalAlign=middle;fontFamily=Helvetica;fontSize=11;fontColor=default;labelBackgroundColor=default;endArrow=classic;" parent="1" source="448" target="453" edge="1">
                    <mxGeometry relative="1" as="geometry"/>
                </mxCell>
                <mxCell id="448" value="dieTwo =&amp;nbsp;&amp;nbsp;Math.floor(Math.random() * 6) + 1" style="rounded=1;whiteSpace=wrap;html=1;fontSize=11;strokeWidth=2;labelBackgroundColor=default;" parent="1" vertex="1">
                    <mxGeometry x="655" y="151" width="135" height="60" as="geometry"/>
                </mxCell>
                <mxCell id="449" value="" style="edgeStyle=orthogonalEdgeStyle;shape=connector;rounded=0;html=1;strokeColor=default;align=center;verticalAlign=middle;fontFamily=Helvetica;fontSize=11;fontColor=default;labelBackgroundColor=default;endArrow=classic;" parent="1" source="450" target="448" edge="1">
                    <mxGeometry relative="1" as="geometry"/>
                </mxCell>
                <mxCell id="450" value="if (numberOfDice &amp;gt;= 1)" style="strokeWidth=2;html=1;shape=mxgraph.flowchart.decision;whiteSpace=wrap;fontFamily=Helvetica;fontSize=11;fontColor=default;labelBackgroundColor=default;" parent="1" vertex="1">
                    <mxGeometry x="658.5" y="20" width="130" height="110" as="geometry"/>
                </mxCell>
                <mxCell id="451" value="" style="edgeStyle=orthogonalEdgeStyle;shape=connector;rounded=0;html=1;strokeColor=default;align=center;verticalAlign=middle;fontFamily=Helvetica;fontSize=11;fontColor=default;labelBackgroundColor=default;endArrow=classic;" parent="1" source="453" target="456" edge="1">
                    <mxGeometry relative="1" as="geometry"/>
                </mxCell>
                <mxCell id="452" value="" style="edgeStyle=orthogonalEdgeStyle;shape=connector;rounded=0;html=1;strokeColor=default;align=center;verticalAlign=middle;fontFamily=Helvetica;fontSize=11;fontColor=default;labelBackgroundColor=default;endArrow=classic;" parent="1" source="453" target="470" edge="1">
                    <mxGeometry relative="1" as="geometry"/>
                </mxCell>
                <mxCell id="453" value="if (&lt;span style=&quot;color: rgb(0, 0, 0);&quot;&gt;dieTwo&lt;/span&gt;&amp;nbsp;=== 1)" style="strokeWidth=2;html=1;shape=mxgraph.flowchart.decision;whiteSpace=wrap;fontFamily=Helvetica;fontSize=11;fontColor=default;labelBackgroundColor=default;" parent="1" vertex="1">
                    <mxGeometry x="657" y="235" width="130" height="110" as="geometry"/>
                </mxCell>
                <mxCell id="454" value="" style="edgeStyle=orthogonalEdgeStyle;shape=connector;rounded=0;html=1;strokeColor=default;align=center;verticalAlign=middle;fontFamily=Helvetica;fontSize=11;fontColor=default;labelBackgroundColor=default;endArrow=classic;" parent="1" source="456" target="459" edge="1">
                    <mxGeometry relative="1" as="geometry"/>
                </mxCell>
                <mxCell id="455" value="" style="edgeStyle=orthogonalEdgeStyle;shape=connector;rounded=0;html=1;strokeColor=default;align=center;verticalAlign=middle;fontFamily=Helvetica;fontSize=11;fontColor=default;labelBackgroundColor=default;endArrow=classic;" parent="1" source="456" target="471" edge="1">
                    <mxGeometry relative="1" as="geometry"/>
                </mxCell>
                <mxCell id="456" value="else if (&lt;span style=&quot;color: rgb(0, 0, 0);&quot;&gt;dieTwo&lt;/span&gt;&amp;nbsp;=== 2)" style="strokeWidth=2;html=1;shape=mxgraph.flowchart.decision;whiteSpace=wrap;fontFamily=Helvetica;fontSize=11;fontColor=default;labelBackgroundColor=default;" parent="1" vertex="1">
                    <mxGeometry x="656" y="367" width="130" height="110" as="geometry"/>
                </mxCell>
                <mxCell id="457" value="" style="edgeStyle=orthogonalEdgeStyle;shape=connector;rounded=0;html=1;strokeColor=default;align=center;verticalAlign=middle;fontFamily=Helvetica;fontSize=11;fontColor=default;labelBackgroundColor=default;endArrow=classic;" parent="1" source="459" target="462" edge="1">
                    <mxGeometry relative="1" as="geometry"/>
                </mxCell>
                <mxCell id="458" value="" style="edgeStyle=orthogonalEdgeStyle;shape=connector;rounded=0;html=1;strokeColor=default;align=center;verticalAlign=middle;fontFamily=Helvetica;fontSize=11;fontColor=default;labelBackgroundColor=default;endArrow=classic;" parent="1" source="459" target="472" edge="1">
                    <mxGeometry relative="1" as="geometry"/>
                </mxCell>
                <mxCell id="459" value="else if (&lt;span style=&quot;color: rgb(0, 0, 0);&quot;&gt;dieTwo&lt;/span&gt;&amp;nbsp;=== 3)" style="strokeWidth=2;html=1;shape=mxgraph.flowchart.decision;whiteSpace=wrap;fontFamily=Helvetica;fontSize=11;fontColor=default;labelBackgroundColor=default;" parent="1" vertex="1">
                    <mxGeometry x="656" y="505" width="130" height="110" as="geometry"/>
                </mxCell>
                <mxCell id="460" value="" style="edgeStyle=orthogonalEdgeStyle;shape=connector;rounded=0;html=1;strokeColor=default;align=center;verticalAlign=middle;fontFamily=Helvetica;fontSize=11;fontColor=default;labelBackgroundColor=default;endArrow=classic;" parent="1" source="462" target="465" edge="1">
                    <mxGeometry relative="1" as="geometry"/>
                </mxCell>
                <mxCell id="461" value="" style="edgeStyle=orthogonalEdgeStyle;shape=connector;rounded=0;html=1;strokeColor=default;align=center;verticalAlign=middle;fontFamily=Helvetica;fontSize=11;fontColor=default;labelBackgroundColor=default;endArrow=classic;" parent="1" source="462" target="473" edge="1">
                    <mxGeometry relative="1" as="geometry"/>
                </mxCell>
                <mxCell id="462" value="else if (&lt;span style=&quot;color: rgb(0, 0, 0);&quot;&gt;dieTwo&lt;/span&gt;&amp;nbsp;=== 4)" style="strokeWidth=2;html=1;shape=mxgraph.flowchart.decision;whiteSpace=wrap;fontFamily=Helvetica;fontSize=11;fontColor=default;labelBackgroundColor=default;" parent="1" vertex="1">
                    <mxGeometry x="656" y="643" width="130" height="110" as="geometry"/>
                </mxCell>
                <mxCell id="463" value="" style="edgeStyle=orthogonalEdgeStyle;shape=connector;rounded=0;html=1;strokeColor=default;align=center;verticalAlign=middle;fontFamily=Helvetica;fontSize=11;fontColor=default;labelBackgroundColor=default;endArrow=classic;" parent="1" source="465" target="468" edge="1">
                    <mxGeometry relative="1" as="geometry"/>
                </mxCell>
                <mxCell id="464" value="" style="edgeStyle=orthogonalEdgeStyle;shape=connector;rounded=0;html=1;strokeColor=default;align=center;verticalAlign=middle;fontFamily=Helvetica;fontSize=11;fontColor=default;labelBackgroundColor=default;endArrow=classic;" parent="1" source="465" target="474" edge="1">
                    <mxGeometry relative="1" as="geometry"/>
                </mxCell>
                <mxCell id="465" value="else if (&lt;span style=&quot;color: rgb(0, 0, 0);&quot;&gt;dieTwo&lt;/span&gt;&amp;nbsp;=== 5)" style="strokeWidth=2;html=1;shape=mxgraph.flowchart.decision;whiteSpace=wrap;fontFamily=Helvetica;fontSize=11;fontColor=default;labelBackgroundColor=default;" parent="1" vertex="1">
                    <mxGeometry x="656" y="781" width="130" height="110" as="geometry"/>
                </mxCell>
                <mxCell id="466" value="" style="edgeStyle=orthogonalEdgeStyle;shape=connector;rounded=0;html=1;strokeColor=default;align=center;verticalAlign=middle;fontFamily=Helvetica;fontSize=11;fontColor=default;labelBackgroundColor=default;endArrow=classic;" parent="1" source="468" target="475" edge="1">
                    <mxGeometry relative="1" as="geometry"/>
                </mxCell>
                <mxCell id="467" style="edgeStyle=orthogonalEdgeStyle;shape=connector;rounded=0;html=1;strokeColor=default;align=center;verticalAlign=middle;fontFamily=Helvetica;fontSize=11;fontColor=default;labelBackgroundColor=default;endArrow=classic;exitX=0.5;exitY=1;exitDx=0;exitDy=0;exitPerimeter=0;" parent="1" source="468" target="476" edge="1">
                    <mxGeometry relative="1" as="geometry">
                        <mxPoint x="756" y="1100" as="targetPoint"/>
                        <mxPoint x="676" y="1027" as="sourcePoint"/>
                        <Array as="points">
                            <mxPoint x="721" y="1090"/>
                        </Array>
                    </mxGeometry>
                </mxCell>
                <mxCell id="468" value="else if (&lt;span style=&quot;color: rgb(0, 0, 0);&quot;&gt;dieTwo&lt;/span&gt;&amp;nbsp;=== 6)" style="strokeWidth=2;html=1;shape=mxgraph.flowchart.decision;whiteSpace=wrap;fontFamily=Helvetica;fontSize=11;fontColor=default;labelBackgroundColor=default;" parent="1" vertex="1">
                    <mxGeometry x="656" y="917" width="130" height="110" as="geometry"/>
                </mxCell>
                <mxCell id="507" style="edgeStyle=orthogonalEdgeStyle;shape=connector;rounded=0;html=1;strokeColor=default;align=center;verticalAlign=middle;fontFamily=Helvetica;fontSize=11;fontColor=default;labelBackgroundColor=default;endArrow=classic;entryX=0;entryY=0.5;entryDx=0;entryDy=0;" edge="1" parent="1" source="470" target="502">
                    <mxGeometry relative="1" as="geometry">
                        <mxPoint x="1040" y="90" as="targetPoint"/>
                        <Array as="points">
                            <mxPoint x="1040" y="290"/>
                            <mxPoint x="1040" y="75"/>
                        </Array>
                    </mxGeometry>
                </mxCell>
                <mxCell id="470" value="&lt;span style=&quot;color: rgb(0, 0, 0);&quot;&gt;document.getElementById(&#39;die-two&#39;).innerHTML = &#39;&amp;lt;img src=&quot;./assets/die1.png&quot;&amp;gt;&#39;&lt;/span&gt;" style="shape=parallelogram;html=1;strokeWidth=2;perimeter=parallelogramPerimeter;whiteSpace=wrap;rounded=1;arcSize=12;size=0.23;fontFamily=Helvetica;fontSize=11;fontColor=default;labelBackgroundColor=default;" parent="1" vertex="1">
                    <mxGeometry x="816" y="260" width="170" height="60" as="geometry"/>
                </mxCell>
                <mxCell id="508" style="edgeStyle=orthogonalEdgeStyle;shape=connector;rounded=0;html=1;strokeColor=default;align=center;verticalAlign=middle;fontFamily=Helvetica;fontSize=11;fontColor=default;labelBackgroundColor=default;endArrow=classic;" edge="1" parent="1" source="471">
                    <mxGeometry relative="1" as="geometry">
                        <mxPoint x="1040" y="120" as="targetPoint"/>
                    </mxGeometry>
                </mxCell>
                <mxCell id="471" value="&lt;span style=&quot;color: rgb(0, 0, 0);&quot;&gt;document.getElementById(&#39;die-two&#39;).innerHTML = &#39;&amp;lt;img src=&quot;./assets/die2.png&quot;&amp;gt;&#39;&lt;/span&gt;" style="shape=parallelogram;html=1;strokeWidth=2;perimeter=parallelogramPerimeter;whiteSpace=wrap;rounded=1;arcSize=12;size=0.23;fontFamily=Helvetica;fontSize=11;fontColor=default;labelBackgroundColor=default;" parent="1" vertex="1">
                    <mxGeometry x="806" y="392" width="170" height="60" as="geometry"/>
                </mxCell>
                <mxCell id="509" style="edgeStyle=orthogonalEdgeStyle;shape=connector;rounded=0;html=1;strokeColor=default;align=center;verticalAlign=middle;fontFamily=Helvetica;fontSize=11;fontColor=default;labelBackgroundColor=default;endArrow=classic;" edge="1" parent="1" source="472">
                    <mxGeometry relative="1" as="geometry">
                        <mxPoint x="1040" y="150" as="targetPoint"/>
                    </mxGeometry>
                </mxCell>
                <mxCell id="472" value="&lt;span style=&quot;color: rgb(0, 0, 0);&quot;&gt;document.getElementById(&#39;die-two&#39;).innerHTML = &#39;&amp;lt;img src=&quot;./assets/die3.png&quot;&amp;gt;&#39;&lt;/span&gt;" style="shape=parallelogram;html=1;strokeWidth=2;perimeter=parallelogramPerimeter;whiteSpace=wrap;rounded=1;arcSize=12;size=0.23;fontFamily=Helvetica;fontSize=11;fontColor=default;labelBackgroundColor=default;" parent="1" vertex="1">
                    <mxGeometry x="806" y="530" width="170" height="60" as="geometry"/>
                </mxCell>
                <mxCell id="510" style="edgeStyle=orthogonalEdgeStyle;shape=connector;rounded=0;html=1;strokeColor=default;align=center;verticalAlign=middle;fontFamily=Helvetica;fontSize=11;fontColor=default;labelBackgroundColor=default;endArrow=classic;" edge="1" parent="1" source="473">
                    <mxGeometry relative="1" as="geometry">
                        <mxPoint x="1040" y="170" as="targetPoint"/>
                    </mxGeometry>
                </mxCell>
                <mxCell id="473" value="&lt;span style=&quot;color: rgb(0, 0, 0);&quot;&gt;document.getElementById(&#39;die-two&#39;).innerHTML = &#39;&amp;lt;img src=&quot;./assets/die4.png&quot;&amp;gt;&#39;&lt;/span&gt;" style="shape=parallelogram;html=1;strokeWidth=2;perimeter=parallelogramPerimeter;whiteSpace=wrap;rounded=1;arcSize=12;size=0.23;fontFamily=Helvetica;fontSize=11;fontColor=default;labelBackgroundColor=default;" parent="1" vertex="1">
                    <mxGeometry x="806" y="668" width="170" height="60" as="geometry"/>
                </mxCell>
                <mxCell id="511" style="edgeStyle=orthogonalEdgeStyle;shape=connector;rounded=0;html=1;strokeColor=default;align=center;verticalAlign=middle;fontFamily=Helvetica;fontSize=11;fontColor=default;labelBackgroundColor=default;endArrow=classic;" edge="1" parent="1" source="474">
                    <mxGeometry relative="1" as="geometry">
                        <mxPoint x="1040" y="200" as="targetPoint"/>
                    </mxGeometry>
                </mxCell>
                <mxCell id="474" value="&lt;span style=&quot;color: rgb(0, 0, 0);&quot;&gt;document.getElementById(&#39;die-two&#39;).innerHTML = &#39;&amp;lt;img src=&quot;./assets/die5.png&quot;&amp;gt;&#39;&lt;/span&gt;" style="shape=parallelogram;html=1;strokeWidth=2;perimeter=parallelogramPerimeter;whiteSpace=wrap;rounded=1;arcSize=12;size=0.23;fontFamily=Helvetica;fontSize=11;fontColor=default;labelBackgroundColor=default;" parent="1" vertex="1">
                    <mxGeometry x="806" y="806" width="170" height="60" as="geometry"/>
                </mxCell>
                <mxCell id="512" style="edgeStyle=orthogonalEdgeStyle;shape=connector;rounded=0;html=1;strokeColor=default;align=center;verticalAlign=middle;fontFamily=Helvetica;fontSize=11;fontColor=default;labelBackgroundColor=default;endArrow=classic;" edge="1" parent="1" source="475">
                    <mxGeometry relative="1" as="geometry">
                        <mxPoint x="1040" y="230" as="targetPoint"/>
                    </mxGeometry>
                </mxCell>
                <mxCell id="475" value="&lt;span style=&quot;color: rgb(0, 0, 0);&quot;&gt;document.getElementById(&#39;die-two&#39;).innerHTML = &#39;&amp;lt;img src=&quot;./assets/die6.png&quot;&amp;gt;&#39;&lt;/span&gt;" style="shape=parallelogram;html=1;strokeWidth=2;perimeter=parallelogramPerimeter;whiteSpace=wrap;rounded=1;arcSize=12;size=0.23;fontFamily=Helvetica;fontSize=11;fontColor=default;labelBackgroundColor=default;" parent="1" vertex="1">
                    <mxGeometry x="790" y="942" width="170" height="60" as="geometry"/>
                </mxCell>
                <mxCell id="476" value="Error comment (You should NEVER get here)" style="shape=parallelogram;html=1;strokeWidth=2;perimeter=parallelogramPerimeter;whiteSpace=wrap;rounded=1;arcSize=12;size=0.23;fontFamily=Helvetica;fontSize=11;fontColor=default;labelBackgroundColor=default;" parent="1" vertex="1">
                    <mxGeometry x="776" y="1060" width="170" height="60" as="geometry"/>
                </mxCell>
                <mxCell id="551" value="" style="edgeStyle=orthogonalEdgeStyle;shape=connector;rounded=0;html=1;strokeColor=default;align=center;verticalAlign=middle;fontFamily=Helvetica;fontSize=11;fontColor=default;labelBackgroundColor=default;endArrow=classic;" edge="1" parent="1" source="502" target="517">
                    <mxGeometry relative="1" as="geometry"/>
                </mxCell>
                <mxCell id="502" value="&lt;span style=&quot;forced-color-adjust: none; color: light-dark(rgb(0, 0, 0), rgb(237, 237, 237)); scrollbar-color: rgb(226, 226, 226) rgb(251, 251, 251); font-family: Helvetica; font-size: 11px; font-style: normal; font-variant-ligatures: normal; font-variant-caps: normal; font-weight: 400; letter-spacing: normal; orphans: 2; text-align: center; text-indent: 0px; text-transform: none; widows: 2; word-spacing: 0px; -webkit-text-stroke-width: 0px; white-space: normal; text-decoration-thickness: initial; text-decoration-style: initial; text-decoration-color: initial;&quot; data-mx-given-colors=&quot;{&amp;quot;color&amp;quot;:&amp;quot;rgb(0, 0, 0)&amp;quot;}&quot;&gt;if (numberOfDice &amp;gt;= 2) to&amp;nbsp;&lt;/span&gt;&lt;div style=&quot;forced-color-adjust: none; color: rgb(63, 63, 63); scrollbar-color: rgb(226, 226, 226) rgb(251, 251, 251); font-family: Helvetica; font-size: 11px; font-style: normal; font-variant-ligatures: normal; font-variant-caps: normal; font-weight: 400; letter-spacing: normal; orphans: 2; text-align: center; text-indent: 0px; text-transform: none; widows: 2; word-spacing: 0px; -webkit-text-stroke-width: 0px; white-space: nowrap; text-decoration-thickness: initial; text-decoration-style: initial; text-decoration-color: initial;&quot;&gt;&lt;span style=&quot;forced-color-adjust: none; color: light-dark(rgb(0, 0, 0), rgb(237, 237, 237)); scrollbar-color: rgb(226, 226, 226) rgb(251, 251, 251); text-wrap-mode: wrap;&quot; data-mx-given-colors=&quot;{&amp;quot;color&amp;quot;:&amp;quot;rgb(0, 0, 0)&amp;quot;}&quot;&gt;if (numberOfDice &amp;gt;= 4)&lt;/span&gt;&lt;/div&gt;" style="whiteSpace=wrap;html=1;fontFamily=Helvetica;fontSize=11;fontColor=default;labelBackgroundColor=default;" vertex="1" parent="1">
                    <mxGeometry x="1080" y="45" width="120" height="60" as="geometry"/>
                </mxCell>
                <mxCell id="513" value="" style="edgeStyle=orthogonalEdgeStyle;shape=connector;rounded=0;html=1;strokeColor=default;align=center;verticalAlign=middle;fontFamily=Helvetica;fontSize=11;fontColor=default;labelBackgroundColor=default;endArrow=classic;" edge="1" parent="1" source="515" target="520">
                    <mxGeometry relative="1" as="geometry"/>
                </mxCell>
                <mxCell id="515" value="dieSix =&amp;nbsp;&amp;nbsp;Math.floor(Math.random() * 6) + 1" style="rounded=1;whiteSpace=wrap;html=1;fontSize=11;strokeWidth=2;labelBackgroundColor=default;" vertex="1" parent="1">
                    <mxGeometry x="1242" y="152" width="135" height="60" as="geometry"/>
                </mxCell>
                <mxCell id="516" value="" style="edgeStyle=orthogonalEdgeStyle;shape=connector;rounded=0;html=1;strokeColor=default;align=center;verticalAlign=middle;fontFamily=Helvetica;fontSize=11;fontColor=default;labelBackgroundColor=default;endArrow=classic;" edge="1" parent="1" source="517" target="515">
                    <mxGeometry relative="1" as="geometry"/>
                </mxCell>
                <mxCell id="517" value="if (numberOfDice &amp;gt;= 5)" style="strokeWidth=2;html=1;shape=mxgraph.flowchart.decision;whiteSpace=wrap;fontFamily=Helvetica;fontSize=11;fontColor=default;labelBackgroundColor=default;" vertex="1" parent="1">
                    <mxGeometry x="1245.5" y="21" width="130" height="110" as="geometry"/>
                </mxCell>
                <mxCell id="518" value="" style="edgeStyle=orthogonalEdgeStyle;shape=connector;rounded=0;html=1;strokeColor=default;align=center;verticalAlign=middle;fontFamily=Helvetica;fontSize=11;fontColor=default;labelBackgroundColor=default;endArrow=classic;" edge="1" parent="1" source="520" target="523">
                    <mxGeometry relative="1" as="geometry"/>
                </mxCell>
                <mxCell id="519" value="" style="edgeStyle=orthogonalEdgeStyle;shape=connector;rounded=0;html=1;strokeColor=default;align=center;verticalAlign=middle;fontFamily=Helvetica;fontSize=11;fontColor=default;labelBackgroundColor=default;endArrow=classic;" edge="1" parent="1" source="520" target="539">
                    <mxGeometry relative="1" as="geometry"/>
                </mxCell>
                <mxCell id="520" value="if (&lt;span style=&quot;color: rgb(0, 0, 0);&quot;&gt;dieSix&lt;/span&gt;&amp;nbsp;=== 1)" style="strokeWidth=2;html=1;shape=mxgraph.flowchart.decision;whiteSpace=wrap;fontFamily=Helvetica;fontSize=11;fontColor=default;labelBackgroundColor=default;" vertex="1" parent="1">
                    <mxGeometry x="1244" y="236" width="130" height="110" as="geometry"/>
                </mxCell>
                <mxCell id="521" value="" style="edgeStyle=orthogonalEdgeStyle;shape=connector;rounded=0;html=1;strokeColor=default;align=center;verticalAlign=middle;fontFamily=Helvetica;fontSize=11;fontColor=default;labelBackgroundColor=default;endArrow=classic;" edge="1" parent="1" source="523" target="526">
                    <mxGeometry relative="1" as="geometry"/>
                </mxCell>
                <mxCell id="522" value="" style="edgeStyle=orthogonalEdgeStyle;shape=connector;rounded=0;html=1;strokeColor=default;align=center;verticalAlign=middle;fontFamily=Helvetica;fontSize=11;fontColor=default;labelBackgroundColor=default;endArrow=classic;" edge="1" parent="1" source="523" target="541">
                    <mxGeometry relative="1" as="geometry"/>
                </mxCell>
                <mxCell id="523" value="else if (&lt;span style=&quot;color: rgb(0, 0, 0);&quot;&gt;dieSix&lt;/span&gt;&amp;nbsp;=== 2)" style="strokeWidth=2;html=1;shape=mxgraph.flowchart.decision;whiteSpace=wrap;fontFamily=Helvetica;fontSize=11;fontColor=default;labelBackgroundColor=default;" vertex="1" parent="1">
                    <mxGeometry x="1243" y="368" width="130" height="110" as="geometry"/>
                </mxCell>
                <mxCell id="524" value="" style="edgeStyle=orthogonalEdgeStyle;shape=connector;rounded=0;html=1;strokeColor=default;align=center;verticalAlign=middle;fontFamily=Helvetica;fontSize=11;fontColor=default;labelBackgroundColor=default;endArrow=classic;" edge="1" parent="1" source="526" target="529">
                    <mxGeometry relative="1" as="geometry"/>
                </mxCell>
                <mxCell id="525" value="" style="edgeStyle=orthogonalEdgeStyle;shape=connector;rounded=0;html=1;strokeColor=default;align=center;verticalAlign=middle;fontFamily=Helvetica;fontSize=11;fontColor=default;labelBackgroundColor=default;endArrow=classic;" edge="1" parent="1" source="526" target="543">
                    <mxGeometry relative="1" as="geometry"/>
                </mxCell>
                <mxCell id="526" value="else if (&lt;span style=&quot;color: rgb(0, 0, 0);&quot;&gt;dieSix&lt;/span&gt;&amp;nbsp;=== 3)" style="strokeWidth=2;html=1;shape=mxgraph.flowchart.decision;whiteSpace=wrap;fontFamily=Helvetica;fontSize=11;fontColor=default;labelBackgroundColor=default;" vertex="1" parent="1">
                    <mxGeometry x="1243" y="506" width="130" height="110" as="geometry"/>
                </mxCell>
                <mxCell id="527" value="" style="edgeStyle=orthogonalEdgeStyle;shape=connector;rounded=0;html=1;strokeColor=default;align=center;verticalAlign=middle;fontFamily=Helvetica;fontSize=11;fontColor=default;labelBackgroundColor=default;endArrow=classic;" edge="1" parent="1" source="529" target="532">
                    <mxGeometry relative="1" as="geometry"/>
                </mxCell>
                <mxCell id="528" value="" style="edgeStyle=orthogonalEdgeStyle;shape=connector;rounded=0;html=1;strokeColor=default;align=center;verticalAlign=middle;fontFamily=Helvetica;fontSize=11;fontColor=default;labelBackgroundColor=default;endArrow=classic;" edge="1" parent="1" source="529" target="545">
                    <mxGeometry relative="1" as="geometry"/>
                </mxCell>
                <mxCell id="529" value="else if (&lt;span style=&quot;color: rgb(0, 0, 0);&quot;&gt;dieSix&lt;/span&gt;&amp;nbsp;=== 4)" style="strokeWidth=2;html=1;shape=mxgraph.flowchart.decision;whiteSpace=wrap;fontFamily=Helvetica;fontSize=11;fontColor=default;labelBackgroundColor=default;" vertex="1" parent="1">
                    <mxGeometry x="1243" y="644" width="130" height="110" as="geometry"/>
                </mxCell>
                <mxCell id="530" value="" style="edgeStyle=orthogonalEdgeStyle;shape=connector;rounded=0;html=1;strokeColor=default;align=center;verticalAlign=middle;fontFamily=Helvetica;fontSize=11;fontColor=default;labelBackgroundColor=default;endArrow=classic;" edge="1" parent="1" source="532" target="535">
                    <mxGeometry relative="1" as="geometry"/>
                </mxCell>
                <mxCell id="531" value="" style="edgeStyle=orthogonalEdgeStyle;shape=connector;rounded=0;html=1;strokeColor=default;align=center;verticalAlign=middle;fontFamily=Helvetica;fontSize=11;fontColor=default;labelBackgroundColor=default;endArrow=classic;" edge="1" parent="1" source="532" target="547">
                    <mxGeometry relative="1" as="geometry"/>
                </mxCell>
                <mxCell id="532" value="else if (&lt;span style=&quot;color: rgb(0, 0, 0);&quot;&gt;dieSix&lt;/span&gt;&amp;nbsp;=== 5)" style="strokeWidth=2;html=1;shape=mxgraph.flowchart.decision;whiteSpace=wrap;fontFamily=Helvetica;fontSize=11;fontColor=default;labelBackgroundColor=default;" vertex="1" parent="1">
                    <mxGeometry x="1243" y="782" width="130" height="110" as="geometry"/>
                </mxCell>
                <mxCell id="533" value="" style="edgeStyle=orthogonalEdgeStyle;shape=connector;rounded=0;html=1;strokeColor=default;align=center;verticalAlign=middle;fontFamily=Helvetica;fontSize=11;fontColor=default;labelBackgroundColor=default;endArrow=classic;" edge="1" parent="1" source="535" target="549">
                    <mxGeometry relative="1" as="geometry"/>
                </mxCell>
                <mxCell id="534" style="edgeStyle=orthogonalEdgeStyle;shape=connector;rounded=0;html=1;strokeColor=default;align=center;verticalAlign=middle;fontFamily=Helvetica;fontSize=11;fontColor=default;labelBackgroundColor=default;endArrow=classic;exitX=0.5;exitY=1;exitDx=0;exitDy=0;exitPerimeter=0;" edge="1" parent="1" source="535" target="552">
                    <mxGeometry relative="1" as="geometry">
                        <mxPoint x="1383" y="1091" as="targetPoint"/>
                        <mxPoint x="1263" y="1028" as="sourcePoint"/>
                        <Array as="points">
                            <mxPoint x="1308" y="1091"/>
                        </Array>
                    </mxGeometry>
                </mxCell>
                <mxCell id="535" value="else if (&lt;span style=&quot;color: rgb(0, 0, 0);&quot;&gt;dieSix&lt;/span&gt;&amp;nbsp;=== 6)" style="strokeWidth=2;html=1;shape=mxgraph.flowchart.decision;whiteSpace=wrap;fontFamily=Helvetica;fontSize=11;fontColor=default;labelBackgroundColor=default;" vertex="1" parent="1">
                    <mxGeometry x="1243" y="918" width="130" height="110" as="geometry"/>
                </mxCell>
                <mxCell id="538" style="edgeStyle=orthogonalEdgeStyle;shape=connector;rounded=0;html=1;strokeColor=default;align=center;verticalAlign=middle;fontFamily=Helvetica;fontSize=11;fontColor=default;labelBackgroundColor=default;endArrow=classic;entryX=0;entryY=0.5;entryDx=0;entryDy=0;entryPerimeter=0;" edge="1" parent="1">
                    <mxGeometry relative="1" as="geometry">
                        <mxPoint x="1667" y="75" as="targetPoint"/>
                        <mxPoint x="1560.4500000000003" y="291" as="sourcePoint"/>
                        <Array as="points">
                            <mxPoint x="1627" y="291"/>
                            <mxPoint x="1627" y="75"/>
                        </Array>
                    </mxGeometry>
                </mxCell>
                <mxCell id="539" value="&lt;span style=&quot;color: rgb(0, 0, 0);&quot;&gt;document.getElementById(&#39;die-two&#39;).innerHTML = &#39;&amp;lt;img src=&quot;./assets/die1.png&quot;&amp;gt;&#39;&lt;/span&gt;" style="shape=parallelogram;html=1;strokeWidth=2;perimeter=parallelogramPerimeter;whiteSpace=wrap;rounded=1;arcSize=12;size=0.23;fontFamily=Helvetica;fontSize=11;fontColor=default;labelBackgroundColor=default;" vertex="1" parent="1">
                    <mxGeometry x="1403" y="261" width="170" height="60" as="geometry"/>
                </mxCell>
                <mxCell id="540" style="edgeStyle=orthogonalEdgeStyle;shape=connector;rounded=0;html=1;strokeColor=default;align=center;verticalAlign=middle;fontFamily=Helvetica;fontSize=11;fontColor=default;labelBackgroundColor=default;endArrow=classic;" edge="1" parent="1" source="541">
                    <mxGeometry relative="1" as="geometry">
                        <mxPoint x="1627" y="121" as="targetPoint"/>
                    </mxGeometry>
                </mxCell>
                <mxCell id="541" value="&lt;span style=&quot;color: rgb(0, 0, 0);&quot;&gt;document.getElementById(&#39;die-two&#39;).innerHTML = &#39;&amp;lt;img src=&quot;./assets/die2.png&quot;&amp;gt;&#39;&lt;/span&gt;" style="shape=parallelogram;html=1;strokeWidth=2;perimeter=parallelogramPerimeter;whiteSpace=wrap;rounded=1;arcSize=12;size=0.23;fontFamily=Helvetica;fontSize=11;fontColor=default;labelBackgroundColor=default;" vertex="1" parent="1">
                    <mxGeometry x="1393" y="393" width="170" height="60" as="geometry"/>
                </mxCell>
                <mxCell id="542" style="edgeStyle=orthogonalEdgeStyle;shape=connector;rounded=0;html=1;strokeColor=default;align=center;verticalAlign=middle;fontFamily=Helvetica;fontSize=11;fontColor=default;labelBackgroundColor=default;endArrow=classic;" edge="1" parent="1" source="543">
                    <mxGeometry relative="1" as="geometry">
                        <mxPoint x="1627" y="151" as="targetPoint"/>
                    </mxGeometry>
                </mxCell>
                <mxCell id="543" value="&lt;span style=&quot;color: rgb(0, 0, 0);&quot;&gt;document.getElementById(&#39;die-two&#39;).innerHTML = &#39;&amp;lt;img src=&quot;./assets/die3.png&quot;&amp;gt;&#39;&lt;/span&gt;" style="shape=parallelogram;html=1;strokeWidth=2;perimeter=parallelogramPerimeter;whiteSpace=wrap;rounded=1;arcSize=12;size=0.23;fontFamily=Helvetica;fontSize=11;fontColor=default;labelBackgroundColor=default;" vertex="1" parent="1">
                    <mxGeometry x="1393" y="531" width="170" height="60" as="geometry"/>
                </mxCell>
                <mxCell id="544" style="edgeStyle=orthogonalEdgeStyle;shape=connector;rounded=0;html=1;strokeColor=default;align=center;verticalAlign=middle;fontFamily=Helvetica;fontSize=11;fontColor=default;labelBackgroundColor=default;endArrow=classic;" edge="1" parent="1" source="545">
                    <mxGeometry relative="1" as="geometry">
                        <mxPoint x="1627" y="171" as="targetPoint"/>
                    </mxGeometry>
                </mxCell>
                <mxCell id="545" value="&lt;span style=&quot;color: rgb(0, 0, 0);&quot;&gt;document.getElementById(&#39;die-two&#39;).innerHTML = &#39;&amp;lt;img src=&quot;./assets/die4.png&quot;&amp;gt;&#39;&lt;/span&gt;" style="shape=parallelogram;html=1;strokeWidth=2;perimeter=parallelogramPerimeter;whiteSpace=wrap;rounded=1;arcSize=12;size=0.23;fontFamily=Helvetica;fontSize=11;fontColor=default;labelBackgroundColor=default;" vertex="1" parent="1">
                    <mxGeometry x="1393" y="669" width="170" height="60" as="geometry"/>
                </mxCell>
                <mxCell id="546" style="edgeStyle=orthogonalEdgeStyle;shape=connector;rounded=0;html=1;strokeColor=default;align=center;verticalAlign=middle;fontFamily=Helvetica;fontSize=11;fontColor=default;labelBackgroundColor=default;endArrow=classic;" edge="1" parent="1" source="547">
                    <mxGeometry relative="1" as="geometry">
                        <mxPoint x="1627" y="201" as="targetPoint"/>
                    </mxGeometry>
                </mxCell>
                <mxCell id="547" value="&lt;span style=&quot;color: rgb(0, 0, 0);&quot;&gt;document.getElementById(&#39;die-two&#39;).innerHTML = &#39;&amp;lt;img src=&quot;./assets/die5.png&quot;&amp;gt;&#39;&lt;/span&gt;" style="shape=parallelogram;html=1;strokeWidth=2;perimeter=parallelogramPerimeter;whiteSpace=wrap;rounded=1;arcSize=12;size=0.23;fontFamily=Helvetica;fontSize=11;fontColor=default;labelBackgroundColor=default;" vertex="1" parent="1">
                    <mxGeometry x="1393" y="807" width="170" height="60" as="geometry"/>
                </mxCell>
                <mxCell id="548" style="edgeStyle=orthogonalEdgeStyle;shape=connector;rounded=0;html=1;strokeColor=default;align=center;verticalAlign=middle;fontFamily=Helvetica;fontSize=11;fontColor=default;labelBackgroundColor=default;endArrow=classic;" edge="1" parent="1" source="549">
                    <mxGeometry relative="1" as="geometry">
                        <mxPoint x="1627" y="231" as="targetPoint"/>
                    </mxGeometry>
                </mxCell>
                <mxCell id="549" value="&lt;span style=&quot;color: rgb(0, 0, 0);&quot;&gt;document.getElementById(&#39;die-two&#39;).innerHTML = &#39;&amp;lt;img src=&quot;./assets/die6.png&quot;&amp;gt;&#39;&lt;/span&gt;" style="shape=parallelogram;html=1;strokeWidth=2;perimeter=parallelogramPerimeter;whiteSpace=wrap;rounded=1;arcSize=12;size=0.23;fontFamily=Helvetica;fontSize=11;fontColor=default;labelBackgroundColor=default;" vertex="1" parent="1">
                    <mxGeometry x="1377" y="943" width="170" height="60" as="geometry"/>
                </mxCell>
                <mxCell id="552" value="Error comment (You should NEVER get here)" style="shape=parallelogram;html=1;strokeWidth=2;perimeter=parallelogramPerimeter;whiteSpace=wrap;rounded=1;arcSize=12;size=0.23;fontFamily=Helvetica;fontSize=11;fontColor=default;labelBackgroundColor=default;" vertex="1" parent="1">
                    <mxGeometry x="1360" y="1060" width="170" height="60" as="geometry"/>
                </mxCell>
                <mxCell id="554" value="Stop" style="strokeWidth=2;html=1;shape=mxgraph.flowchart.terminator;whiteSpace=wrap;" vertex="1" parent="1">
                    <mxGeometry x="1650" y="45" width="100" height="60" as="geometry"/>
                </mxCell>
            </root>
        </mxGraphModel>
    </diagram>
</mxfile>